<svg width="32" height="32" viewBox="0 0 32 32" fill="none" xmlns="http://www.w3.org/2000/svg">
<circle cx="15.755" cy="15.755" r="15.755" fill="white"/>
<g clip-path="url(#clip0_51_205)">
<path d="M16.1394 4.80335V6.7247M16.1394 24.0168V25.9381M8.66538 7.89671L10.0295 9.26087M22.2493 21.4806L23.6134 22.8448M5.57202 15.3707H7.49336M24.7854 15.3707H26.7068M8.66538 22.8448L10.0295 21.4806M22.2493 9.26087L23.6134 7.89671M20.9428 15.3707C20.9428 18.0236 18.7922 20.1741 16.1394 20.1741C13.4866 20.1741 11.336 18.0236 11.336 15.3707C11.336 12.7179 13.4866 10.5674 16.1394 10.5674C18.7922 10.5674 20.9428 12.7179 20.9428 15.3707Z" stroke="#000002" stroke-width="1.53707" stroke-linecap="round" stroke-linejoin="round"/>
</g>
<defs>
<clipPath id="clip0_51_205">
<rect width="23.0561" height="23.0561" fill="white" transform="translate(4.61133 3.84268)"/>
</clipPath>
</defs>
</svg>
